<?xml version="1.0" encoding="utf-8"?>
<!-- Generator: Adobe Illustrator 19.2.1, SVG Export Plug-In . SVG Version: 6.00 Build 0)  -->
<svg version="1.1" id="layer" xmlns="http://www.w3.org/2000/svg" xmlns:xlink="http://www.w3.org/1999/xlink" x="0px" y="0px"
	 viewBox="0 0 652 652" style="enable-background:new 0 0 652 652;" xml:space="preserve">
<style type="text/css">
	.st0{fill:#FFFFFF;}
	.st1{fill:#CC0000;}
</style>
<path d="M228.1,335.5c-1.1,4.1-1.9,8.2-2.5,12.4c-8.6-0.3-14.7-0.4-18.4-0.4c-3.6,0-9.7,0.1-18.1,0.4c-0.4,0-0.5-0.3-0.5-0.9
	s0.2-0.9,0.5-0.9c1.9-0.1,3.8-0.6,5.5-1.5c1.1-1.1,1.7-2.6,1.5-4.2v-31.7c0.1-1.1-0.1-2.3-0.6-3.3c-0.5-0.7-1.2-1.2-2.1-1.5
	c-1.4-0.5-2.9-0.8-4.4-0.9c-0.4-0.1-0.5-0.4-0.5-1s0.2-1,0.5-0.9c1.5,0,3.3,0.1,5.4,0.2c2.1,0.1,3.8,0.2,5.1,0.2c1.4,0,3-0.1,5-0.2
	c2-0.1,3.8-0.2,5.4-0.2c0.4,0,0.5,0.3,0.5,0.9s-0.2,0.9-0.5,0.9c-1.5,0.1-2.9,0.4-4.3,0.9c-0.8,0.3-1.6,0.8-2.1,1.5
	c-0.5,1-0.7,2.2-0.6,3.3v32.7c-0.3,1.9,1,3.7,2.9,4c0.3,0,0.6,0,0.9,0h6.8c2.5,0.1,5-0.7,7-2.2c2.5-2.3,4.4-5.1,5.7-8.2
	c0.1-0.2,0.3-0.3,0.6-0.3c0.3,0,0.6,0.1,0.8,0.3C227.9,334.9,228.1,335.2,228.1,335.5z M282.5,324.7c0.2,6.5-2.3,12.8-6.9,17.5
	c-10.3,9.1-25.6,9.1-35.9,0c-4.6-4.6-7.1-10.9-6.9-17.5c0-13.7,11.1-24.8,24.8-24.8S282.4,311,282.5,324.7L282.5,324.7z
	 M275.1,324.7c0.3-5.8-1.4-11.5-4.8-16.2c-5.2-7-15.1-8.4-22.1-3.1c-1.2,0.9-2.2,1.9-3.1,3.1c-3.3,4.7-5,10.4-4.8,16.2
	c-0.3,5.7,1.4,11.3,4.7,16c5.5,7,15.7,8.1,22.7,2.6c1-0.8,1.8-1.6,2.6-2.6C273.7,336,275.4,330.4,275.1,324.7L275.1,324.7z
	 M342.5,301.9c0,0.6-0.2,0.9-0.5,0.9c-2,0.1-4,0.6-5.8,1.6c-1.2,1-1.8,2.6-1.6,4.1l-0.8,39.7c0,0.4-0.3,0.7-0.8,0.7
	c-0.4-0.1-0.8-0.2-1.1-0.5L297.3,309l-0.5,31.2c0,0.2,0,0.3,0,0.5c-0.1,1.4,0.5,2.8,1.6,3.6c1.8,0.9,3.8,1.4,5.8,1.6
	c0.4,0,0.5,0.3,0.5,0.9s-0.2,0.9-0.5,0.9c-1.2,0-2.8-0.1-4.8-0.2c-2-0.1-3.5-0.2-4.4-0.2c-1.1,0-2.6,0.1-4.5,0.2
	c-1.9,0.1-3.3,0.2-4.3,0.2c-0.4,0-0.5-0.3-0.5-0.9s0.2-0.9,0.6-0.9c2-0.1,4-0.6,5.8-1.6c1.2-1,1.8-2.6,1.7-4.1l1.2-31.7v-0.3
	c0.2-1.5-0.4-2.9-1.6-3.8c-1.8-0.9-3.8-1.5-5.9-1.6c-0.3,0-0.5-0.3-0.5-0.9c0-0.6,0.2-0.9,0.5-0.9c0.8,0,1.9,0.1,3.3,0.2
	s2.4,0.2,2.8,0.2c0.9,0,1.9-0.1,2.8-0.2c1-0.1,1.9-0.2,2.9-0.2l32.4,36.3v-28.5c0.2-1.5-0.5-3-1.6-4c-1.9-1-3.9-1.6-6-1.7
	c-0.4,0-0.5-0.3-0.5-0.9c0-0.6,0.2-0.9,0.5-0.9c1.2,0,2.8,0.1,4.9,0.2c2,0.1,3.5,0.2,4.4,0.2c1.1,0,2.6-0.1,4.5-0.2
	c1.9-0.1,3.3-0.2,4.3-0.2C342.4,301.1,342.5,301.3,342.5,301.9z M396.4,327.2c0,0.6-0.2,0.9-0.5,0.9c-1.9,0.1-3.8,0.6-5.5,1.5
	c-1.1,1.1-1.7,2.6-1.5,4.2v4c-0.1,2.4,0.1,4.8,0.7,7.1c-3.1,1.2-6.3,2.2-9.6,2.9c-3,0.7-6.1,1.1-9.2,1.1c-4.7,0.1-9.3-0.9-13.5-3
	c-3.8-2-6.9-5-9-8.7c-2.2-3.8-3.3-8.2-3.2-12.5c-0.1-9.1,5-17.4,13.2-21.5c4.3-2.1,9.1-3.2,13.9-3.1c2.7,0.1,5.5,0.5,8.2,1.1
	c2.3,0.5,4.6,0.8,6.9,0.9c0.3,3.1,0.8,7,1.6,11.5c0,0.4-0.4,0.5-1.1,0.5c-0.5,0-0.8-0.2-0.8-0.5c-2-7.5-7.2-11.3-15.8-11.3
	c-5.2,0-10.1,2.4-13.3,6.5c-3.6,4.5-5.5,10.2-5.4,16c-0.2,5.7,1.7,11.2,5.3,15.6c3.1,4.1,7.9,6.5,13,6.4c7.5,0,11.3-1.9,11.3-5.6v-9
	c0-1.2-0.7-2.2-1.8-2.6c-2.8-0.8-5.6-1.3-8.5-1.5c-0.4,0-0.5-0.3-0.5-1s0.2-1,0.5-0.9c1.5,0,3.7,0.1,6.7,0.2c2.9,0.1,5,0.2,6.3,0.2
	c1.3,0,3.1-0.1,5.4-0.2c2.2-0.1,4.1-0.2,5.8-0.2C396.2,326.2,396.4,326.5,396.4,327.2L396.4,327.2z M446.1,346.9
	c0,0.6-0.2,0.9-0.5,0.9c-0.8,0-2.2-0.1-4.1-0.2c-1.4-0.1-2.3-0.2-2.7-0.2c-0.7,0-1.7,0.1-3.1,0.2s-2.4,0.2-3.1,0.2l-10.2-16.6
	c-0.9-1.6-2.1-3.1-3.5-4.4c-1.7-0.8-3.5-1.2-5.3-1v14.5c-0.1,1.1,0.1,2.3,0.6,3.3c0.5,0.7,1.2,1.3,2.1,1.5c1.4,0.5,2.8,0.8,4.3,0.9
	c0.4,0,0.6,0.3,0.6,0.9c0,0.6-0.2,0.9-0.5,0.9c-1.5,0-3.3-0.1-5.4-0.2c-2.1-0.1-3.8-0.2-5-0.2c-1.4,0-3,0.1-5,0.2
	c-2,0.1-3.8,0.2-5.4,0.2c-0.4,0-0.5-0.3-0.5-0.9s0.2-0.9,0.5-0.9c1.5-0.1,2.9-0.4,4.3-0.9c0.8-0.3,1.6-0.8,2.1-1.5
	c0.5-1,0.7-2.2,0.6-3.3v-31.6c0.1-1.1-0.1-2.3-0.6-3.3c-0.5-0.7-1.2-1.3-2-1.5c-1.4-0.5-2.9-0.8-4.4-0.9c-0.4,0-0.5-0.3-0.5-0.9
	c0-0.6,0.2-0.9,0.5-0.9c1.5,0,3.3,0.1,5.4,0.2c2.1,0.1,3.7,0.2,5,0.2c1.4,0,3.1-0.1,5.1-0.2c2-0.1,3.8-0.2,5.4-0.2
	c4.1-0.2,8.2,0.9,11.5,3.2c2.8,2.1,4.3,5.5,4.1,9c0,2.5-1.1,5-2.8,6.8c-2.1,2.2-4.8,3.9-7.7,4.8l10.9,16.6c0.8,1.4,2,2.6,3.5,3.3
	c1.7,0.8,3.6,1.3,5.5,1.5C445.8,346,446,346.3,446.1,346.9L446.1,346.9z M428.9,313.1c0-6.6-2.9-9.8-8.6-9.8c-1.4,0-2.9,0.1-4.3,0.5
	c-0.8,0.2-1.5,0.7-1.9,1.4c-0.4,1.1-0.6,2.3-0.5,3.4v15c1.6,0.2,3.3,0.3,4.9,0.3c2.9,0.3,5.7-0.7,7.9-2.6
	C428.2,319,429.1,316.1,428.9,313.1L428.9,313.1z M490.5,336.7c-1.7,3.6-3.2,7.3-4.4,11.1c-8.5-0.3-14.5-0.4-18.1-0.4
	s-9.6,0.1-18.1,0.4c-0.4,0-0.5-0.3-0.5-0.9c0-0.6,0.2-0.9,0.5-0.9c1.5-0.1,2.9-0.4,4.3-0.9c0.8-0.3,1.6-0.8,2.1-1.5
	c0.5-1,0.7-2.2,0.6-3.3v-31.7c0.1-1.1-0.1-2.3-0.6-3.3c-0.5-0.7-1.2-1.2-2.1-1.5c-1.4-0.5-2.9-0.8-4.4-0.9c-0.4,0-0.5-0.3-0.5-0.9
	c0-0.6,0.2-0.9,0.5-0.9c5.7,0.3,11.4,0.4,17.3,0.4c5.9,0,11.7-0.1,17.3-0.4c0.6,3.5,1.4,6.9,2.4,10.3c0,0.4-0.4,0.7-1.2,0.7
	c-0.3,0.1-0.6-0.1-0.8-0.4c-1.1-4.9-5.6-8.3-10.6-7.9h-6.8c-1.9-0.2-3.7,1.2-3.9,3.1c0,0.3,0,0.6,0,0.9v15h8.5
	c1.7,0.2,3.4-0.4,4.6-1.6c1-1.7,1.6-3.5,1.7-5.5c0-0.4,0.3-0.5,0.9-0.5c0.6,0,0.9,0.2,0.9,0.5c0,1.1-0.1,2.5-0.2,4.3
	c-0.1,1.7-0.2,3-0.2,4c0,1.1,0.1,2.4,0.2,4c0.1,1.6,0.2,3.1,0.2,4.3c0,0.4-0.3,0.5-0.9,0.5c-0.6,0-0.9-0.2-0.9-0.5
	c-0.1-2-0.7-4-1.8-5.8c-1.1-1.2-2.8-1.8-4.5-1.7h-8.5v16.6c-0.3,1.9,1,3.7,2.9,4c0.3,0,0.6,0,0.9,0h7.4c2.9-0.1,5.6-1,7.9-2.6
	c2.5-1.6,4.5-3.9,5.8-6.5c0.1-0.2,0.3-0.3,0.6-0.3c0.3,0,0.6,0.1,0.8,0.3c0.2,0.1,0.4,0.4,0.3,0.6L490.5,336.7z M539.4,346.9
	c0,0.6-0.2,0.9-0.5,0.9c-1.6,0-3.3-0.1-5.3-0.2c-1.7-0.1-3.1-0.2-4.3-0.2s-2.9,0.1-5.1,0.2c-2.1,0.1-4,0.2-5.5,0.2
	c-0.4,0-0.5-0.3-0.5-0.9c0-0.6,0.1-0.9,0.4-0.9c1.5,0,2.9-0.3,4.3-0.8c0.8-0.3,1.3-1.2,1.3-2c-0.1-0.9-0.4-1.9-0.8-2.7l-3.8-11.3
	h-13.9l-3.8,10.4c-0.4,1-0.7,2.1-0.7,3.2c0,2,1.8,3.1,5.4,3.2c0.3,0,0.4,0.3,0.4,0.9c0,0.6-0.2,0.9-0.5,0.9c-1.3,0-2.8-0.1-4.5-0.2
	c-1.6-0.1-3-0.2-4.1-0.2c-1,0-2.2,0.1-3.6,0.2c-1.5,0.1-2.7,0.2-3.8,0.2c-0.3,0-0.5-0.3-0.5-0.8c0-0.6,0.3-0.9,0.8-1
	c1.6-0.1,3.1-0.6,4.4-1.6c1.5-1.5,2.7-3.3,3.4-5.3l15.8-38.7c0.2-0.4,0.5-0.6,0.9-0.5c0.5,0,0.9,0.2,1,0.5l13.9,38.7
	c0.6,1.9,1.7,3.5,3.2,4.8c1.6,1.1,3.4,1.8,5.4,1.9c0.5,0.1,0.7,0.4,0.7,0.9L539.4,346.9z M518.9,326.9l-5.9-17.3l-6.4,17.3H518.9z
	 M592.1,324.8c0.2,6.3-2.3,12.4-6.9,16.7c-4.6,4.2-10.9,6.4-18.8,6.4c-1,0-3,0-6-0.1s-5.1-0.1-6.2-0.1c-4.2,0-8.3,0.1-12.2,0.3
	c-0.4,0-0.5-0.3-0.5-0.9c0-0.6,0.2-0.9,0.5-0.9c1.5-0.1,2.9-0.4,4.3-0.9c0.8-0.3,1.6-0.8,2.1-1.5c0.5-1,0.7-2.2,0.6-3.3v-31.6
	c0.1-1.1-0.1-2.3-0.6-3.3c-0.5-0.7-1.2-1.3-2-1.5c-1.4-0.5-2.9-0.8-4.4-0.9c-0.4,0-0.5-0.3-0.5-0.9c0-0.6,0.2-0.9,0.5-0.9
	c2.6,0.2,6.6,0.3,12.2,0.3l6.2-0.1l6-0.1c6.8-0.3,13.5,2.1,18.6,6.6C589.7,312.1,592.2,318.3,592.1,324.8L592.1,324.8z M584.7,324.8
	c0.2-5.6-1.8-11-5.4-15.3c-3.2-3.9-8.1-6.2-13.1-6.1h-0.2l-6.3,0.1c-2.7,0.1-4,1.4-4,3.8v34.2c-0.2,1.9,1.1,3.6,3,3.9
	c0.3,0,0.7,0,1,0l6.3,0.2c5.1,0.1,10-2.1,13.3-6C582.9,335.5,584.8,330.2,584.7,324.8L584.7,324.8z M626.8,334.4
	c0.2,4-1.2,7.8-4,10.7c-2.9,2.7-6.9,4.1-10.9,3.9c-2.4-0.1-4.8-0.4-7.2-1.1c-2-0.6-4.1-0.9-6.2-1c-0.1-3.8-0.4-7.7-0.8-11.5
	c0-0.4,0.3-0.5,1-0.5c0.4,0,0.7,0.2,0.9,0.5c0.7,3.3,2.3,6.4,4.7,8.9c2.2,1.8,5.1,2.7,7.9,2.6c2.3,0.1,4.6-0.7,6.3-2.3
	c1.6-1.8,2.4-4.2,2.2-6.6c0-1.9-0.7-3.7-1.9-5.1c-2.5-2.4-5.3-4.5-8.3-6c-3.6-1.8-6.9-4.2-9.6-7.1c-1.5-1.8-2.3-4.1-2.3-6.5
	c0-3.5,1.5-6.9,4.1-9.3c2.8-2.6,6.5-4,10.3-3.8c1.8,0,3.6,0.2,5.4,0.6c1.6,0.4,3.3,0.5,4.9,0.6c0.3,4,0.6,7.4,1.1,10.5
	c0,0.4-0.3,0.5-0.9,0.5c-0.6,0-0.9-0.2-1-0.5c-0.4-2.7-1.6-5.2-3.4-7.3c-1.7-1.6-3.9-2.3-6.2-2.2c-4.2-0.3-7.9,2.9-8.2,7.1
	c0,0.4,0,0.7,0,1.1c0.1,1.7,0.7,3.3,1.9,4.6c2.4,2.3,5.1,4.2,8.1,5.8c3.6,1.9,6.8,4.3,9.6,7.2C626,329.7,626.8,332,626.8,334.4
	L626.8,334.4z"/>
<path class="st0" d="M88.5,267.3c31.9,0,57.7,25.9,57.7,57.7s-25.9,57.7-57.7,57.7S30.7,356.9,30.7,325S56.6,267.3,88.5,267.3"/>
<path class="st1" d="M97.3,350c2.2,0,4.4-0.7,6.2-1.9c3.1-2.7,5.4-6.1,6.7-10c0-0.2,0.4-0.4,0.8-0.4c0.4,0,0.7,0.1,1,0.4
	c0.2,0.2,0.4,0.5,0.4,0.8c-1.3,4.9-2.3,10-3.1,15H65.9c-0.4,0-0.6-0.4-0.6-1.2s0.2-1.2,0.6-1.2c2.5-0.2,4.9-0.7,7.1-1.7
	c1.4-1.2,2.1-3,1.9-4.8v-39.3c0.1-1.4-0.2-2.8-0.8-4c-0.7-0.8-1.5-1.5-2.5-1.9c-1.7-0.6-3.4-1-5.2-1.2c-0.4,0-0.6-0.4-0.6-1.2
	s0.2-1.2,0.6-1.2H91c0.4,0,0.6,0.4,0.6,1.2s-0.2,1.2-0.6,1.2c-1.8,0.2-3.5,0.6-5.2,1.2c-1,0.4-1.8,1-2.5,1.7
	c-0.5,1.4-0.6,2.8-0.6,4.2v39.8c0,2.3,1.3,4.8,3.5,4.8S94.8,350.2,97.3,350z M88.5,275c-27.6,0-50,22.4-50,50c0,27.6,22.4,50,50,50
	c27.6,0,50-22.4,50-50c0-0.1,0-0.1,0-0.2c0-27.5-22.2-49.8-49.7-49.9C88.7,275,88.6,275,88.5,275z"/>
<path class="st1" d="M88.5,380.8c-30.8,0-55.8-25-55.8-55.8s25-55.8,55.8-55.8s55.8,25,55.8,55.8S119.3,380.8,88.5,380.8
	 M88.5,263.4c-34,0-61.6,27.6-61.6,61.6s27.6,61.6,61.6,61.6S150,359,150,325S122.5,263.4,88.5,263.4"/>
</svg>
